<?xml version="1.0" encoding="UTF-8"?>
<svg id="_レイヤー_1" data-name="レイヤー 1" xmlns="http://www.w3.org/2000/svg" width="663" height="768" viewBox="0 0 663 768">
  <defs>
    <style>
      .cls-1 {
        fill: none;
      }

      .cls-1, .cls-2 {
        stroke: #6f8086;
        stroke-miterlimit: 10;
        stroke-width: 3px;
      }

      .cls-3 {
        fill: #6f8086;
      }

      .cls-2 {
        fill: #fff;
      }
    </style>
  </defs>
  <path class="cls-2" d="m198.49,391.99c-30.03,29.03-72.26,74.65-76,97.12-4.87,19.42-.84,30.57-11.91,44.22-13.94,11.2-20.6,26.4-23.8,44.22-5.76,11.13-12.46,8.85-20.41,20.4-7.88,11.44-3.26,16.51-11.91,25.51-13.54,8.25-24.05,29.36-34.01,40.82-20.39,43.25,33.52,69.82,76.53,59.53,24.53-12.52,30.91-9.96,54.42-8.5,14.13-6.14,35.52-35.22,56.13-35.72,7.25-1.73,15.1-2.59,23.37-2.86m316.91-245.23c23.97,30.23,61.88,58.54,81.49,74.62,15.2,20.14,21.89,54.93,8.5,76.53-7.29,11.75-17.34,14.47-18.71,27.21-1.4,13.1,8.08,20.93,3.4,28.91-4.54,7.75-16.22,4.98-18.71,11.91,10.22,26.75,40.9,78.65-18.7,57.82-21.86-7.68-33.01-17.43-49.04-24.55m-187.56-1.15c7.2-.53,14.11-1.55,20.61-3.22,19.36-6.86,32.44-5.38,46.42-1.65m-210.537-405.661c40.365-53.469-15.56-112.227,11.053-182.826-23.865-34.921-20.875-91.843,37.417-52.72,14.615-10.019,64.149-12.109,95.757-10.135,17.707-.817,30.952,11.311,45.625,16.88,9.787-12.985,30.481-14.85,42.579-1.272,13.549,22.459-8.339,41.309-13.917,56.135,10.164,27.281-7.546-11.788,24.083,54.539,15.066,43.039,50.128,77.606,67.894,117.187,11.351,37.006,26.572,86,34.01,119.391-5.005,51.534,3.44,155.504-3.665,208.362-5.17,51.347-10.189,43.848-10.048,74.081.149,26.78,4.343,49.257-6.985,55.414-7.873.48-40.699,8.308-52.916,1.618-21.671,9.625-8.416,12.148-32.272,1.67-16.055,5.871-14.484,6.627-32.489-.044-18.026,1.358-29.045,10.074-17.942-8.776,19.108-12.328,16.437-7.566,18.546-34.141,9.675-24.255,8.121-20.499,3.246-47.727,6.98-28.823-9.386-82.723-34.38-91.282-14.258.358-25.005,29.925-28.705,39.722-11.115,36.081-5.634,32.194-3.154,64.664.896,21.08-2.88,25.005,1.846,37.228,7.572,11.921,10.888,31.241-2.118,38.767-5.552,2.155-9.094-3.953-20.508-3.489-21.121,6.686-41.698-.001-64.54,3.37-52.897-12.143-32.101.393-33.829-36.042-4.322-10.694.272-14.011,5.305-22.07-6.411-43.364-18.808-74.448-24.078-131.902,2.842-76.218-30.806-196.807-5.814-266.602Z"/>
  <g>
    <path class="cls-3" d="m278.953,60.533c.237-.885,1.021-3.336,3.401-5.102,2.598-1.927,5.396-1.777,6.803-1.701,1.514.082,3.509.189,5.102,1.701.371.352,1.761,1.671,1.701,3.401-.082,2.355-2.795,3.839-5.102,5.102-1.838,1.006-4.069,2.227-6.803,1.701-.666-.128-2.133-.431-3.401-1.701-1.293-1.294-1.611-2.822-1.701-3.401Z"/>
    <path class="cls-3" d="m374.194,67.336c-.237-.885-1.021-3.336-3.401-5.102-2.598-1.927-5.396-1.777-6.803-1.701-1.514.082-3.509.189-5.102,1.701-.371.352-1.761,1.671-1.701,3.401.082,2.355,2.795,3.839,5.102,5.102,1.838,1.006,4.069,2.227,6.803,1.701.666-.128,2.133-.431,3.401-1.701,1.293-1.294,1.611-2.822,1.701-3.401Z"/>
    <path class="cls-3" d="m312.967,106.452c-2.181-.702-3.203-2.835-5.102-6.803-1.304-2.724-3.752-7.837-1.701-11.905.704-1.395,1.364-1.532,3.401-3.401,6.781-6.222,6.172-10.861,10.204-11.905,2.505-.648,2.758,1.138,8.503,1.701,5.35.524,5.878-.951,8.503,0,2.477.898,4.52,4.579,8.503,11.905,3.094,5.689,3.401,7.021,3.401,8.503,0,4.144-2.404,7.226-3.401,8.503-1.579,2.024-3.749,4.806-6.803,5.102-4.992.485-6.286-6.263-11.905-6.803-5.96-.572-8.976,6.592-13.606,5.102Z"/>
    <path class="cls-1" d="m299.362,126.86c13.606-3.401,25.51-10.204,25.51-10.204l1.701-15.306-1.701,15.306s6.803,8.503,22.109,15.306"/>
  </g>
  <g>
    <path class="cls-3" d="m90.176,713.6c-11.02,6.809-32.585-.817-34.014-10.204-.835-5.483,5.374-10.438,13.606-17.007,17.406-13.89,35.173-16.403,40.817-17.007,8.127-.87,24.18-1.32,25.51,3.401.994,3.528-6.57,8.749-13.606,13.606-11.684,8.065-15.486,6.929-22.109,13.606-6.864,6.92-5.028,10.407-10.204,13.606Z"/>
    <path class="cls-3" d="m42.557,686.389c-3.612,3.624-14.905-.605-15.306-5.102-.26-2.91,3.967-6.77,8.503-6.803.519-.004,4.558.036,6.803,3.401,1.818,2.726,1.821,6.676,0,8.503Z"/>
    <path class="cls-3" d="m61.264,671.082c-2.055,1.838-10.089-1.071-11.905-6.803-1.378-4.349.952-9.919,3.401-10.204,1.835-.214,3.541,2.562,5.102,5.102,1.621,2.637,5.534,9.998,3.401,11.905Z"/>
    <path class="cls-3" d="m76.57,659.178c-2.31,1.595-7.551-1.395-10.204-5.102-2.237-3.125-3.783-8.361-1.701-10.204,2.098-1.857,7.386.168,10.204,3.401,3.315,3.802,4.076,10.264,1.701,11.905Z"/>
    <path class="cls-3" d="m93.577,652.375c-2.679.479-6.924-4.86-6.803-10.204.091-4.02,2.663-8.541,5.102-8.503,2.886.044,5.678,6.472,5.102,11.905-.221,2.088-1.192,6.408-3.401,6.803Z"/>
    <path class="cls-3" d="m115.543,652.559c-3.461-1.334-4.038-10.114-.401-15.447,2.531-3.712,7.202-5.899,9.522-3.786,1.725,1.572,1.52,4.949,1.437,6.314-.052.85-.441,6.031-3.989,9.848-.321.345-3.889,4.104-6.569,3.071Z"/>
  </g>
</svg>